HIERARCHY
ROOT Hips
{
  OFFSET 0.0 0.0 0.0
  CHANNELS 6 Xposition Yposition Zposition Zrotation Yrotation Xrotation
  JOINT LHipJoint
  {
    OFFSET 0.0 0.0 0.0
    CHANNELS 3 Zrotation Yrotation Xrotation
    JOINT LeftUpLeg
    {
      OFFSET 1.363059998 -1.794630051 0.839290023
      CHANNELS 3 Zrotation Yrotation Xrotation
      JOINT LeftLeg
      {
        OFFSET 2.448110104 -6.726130009 0.0
        CHANNELS 3 Zrotation Yrotation Xrotation
        JOINT LeftFoot
        {
          OFFSET 2.562200069 -7.039589882 0.0
          CHANNELS 3 Zrotation Yrotation Xrotation
          JOINT LeftToeBase
          {
            OFFSET 0.157639995 -0.433109999 2.322550058
            CHANNELS 3 Zrotation Yrotation Xrotation
            End Site
            {
              OFFSET 0.0 -0.0 1.189659953
            }
          }
        }
      }
    }
  }
  JOINT RHipJoint
  {
    OFFSET 0.0 0.0 0.0
    CHANNELS 3 Zrotation Yrotation Xrotation
    JOINT RightUpLeg
    {
      OFFSET -1.305520058 -1.794630051 0.839290023
      CHANNELS 3 Zrotation Yrotation Xrotation
      JOINT RightLeg
      {
        OFFSET -2.54253006 -6.985549927 0.0
        CHANNELS 3 Zrotation Yrotation Xrotation
        JOINT RightFoot
        {
          OFFSET -2.568259954 -7.056230068 0.0
          CHANNELS 3 Zrotation Yrotation Xrotation
          JOINT RightToeBase
          {
            OFFSET -0.164729998 -0.452589989 2.363149881
            CHANNELS 3 Zrotation Yrotation Xrotation
            End Site
            {
              OFFSET -0.0 -0.0 1.21081996
            }
          }
        }
      }
    }
  }
  JOINT LowerBack
  {
    OFFSET 0.0 0.0 0.0
    CHANNELS 3 Zrotation Yrotation Xrotation
    JOINT Spine
    {
      OFFSET 0.028270001 2.035589933 -0.193379998
      CHANNELS 3 Zrotation Yrotation Xrotation
      JOINT Spine1
      {
        OFFSET 0.05672 2.04885006 -0.042750001
        CHANNELS 3 Zrotation Yrotation Xrotation
        JOINT Neck
        {
          OFFSET 0.0 0.0 0.0
          CHANNELS 3 Zrotation Yrotation Xrotation
          JOINT Neck1
          {
            OFFSET -0.054170001 1.74624002 0.172020003
            CHANNELS 3 Zrotation Yrotation Xrotation
            JOINT Head
            {
              OFFSET 0.10407 1.761360049 -0.123970002
              CHANNELS 3 Zrotation Yrotation Xrotation
              End Site
              {
                OFFSET 0.0372 1.770439982 -0.062410001
              }
            }
          }
        }
        JOINT LeftShoulder
        {
          OFFSET 0.0 0.0 0.0
          CHANNELS 3 Zrotation Yrotation Xrotation
          JOINT LeftArm
          {
            OFFSET 3.362410069 1.200889945 -0.311210006
            CHANNELS 3 Zrotation Yrotation Xrotation
            JOINT LeftForeArm
            {
              OFFSET 4.982999802 -0.0 -0.0
              CHANNELS 3 Zrotation Yrotation Xrotation
              JOINT LeftHand
              {
                OFFSET 3.483560085 -0.0 -0.0
                CHANNELS 3 Zrotation Yrotation Xrotation
                JOINT LeftFingerBase
                {
                  OFFSET 0.0 0.0 0.0
                  CHANNELS 3 Zrotation Yrotation Xrotation
                  JOINT LeftHandIndex1
                  {
                    OFFSET 0.715260029 -0.0 -0.0
                    CHANNELS 3 Zrotation Yrotation Xrotation
                    End Site
                    {
                      OFFSET 0.576659977 -0.0 -0.0
                    }
                  }
                }
                JOINT LThumb
                {
                  OFFSET 0.0 0.0 0.0
                  CHANNELS 3 Zrotation Yrotation Xrotation
                  End Site
                  {
                    OFFSET 0.585470021 -0.0 0.585470021
                  }
                }
              }
            }
          }
        }
        JOINT RightShoulder
        {
          OFFSET 0.0 0.0 0.0
          CHANNELS 3 Zrotation Yrotation Xrotation
          JOINT RightArm
          {
            OFFSET -3.136600018 1.374050021 -0.404650003
            CHANNELS 3 Zrotation Yrotation Xrotation
            JOINT RightForeArm
            {
              OFFSET -5.241899967 -0.0 -0.0
              CHANNELS 3 Zrotation Yrotation Xrotation
              JOINT RightHand
              {
                OFFSET -3.444169998 -0.0 -0.0
                CHANNELS 3 Zrotation Yrotation Xrotation
                JOINT RightFingerBase
                {
                  OFFSET 0.0 0.0 0.0
                  CHANNELS 3 Zrotation Yrotation Xrotation
                  JOINT RightHandIndex1
                  {
                    OFFSET -0.622529984 -0.0 -0.0
                    CHANNELS 3 Zrotation Yrotation Xrotation
                    End Site
                    {
                      OFFSET -0.501900017 -0.0 -0.0
                    }
                  }
                }
                JOINT RThumb
                {
                  OFFSET 0.0 0.0 0.0
                  CHANNELS 3 Zrotation Yrotation Xrotation
                  End Site
                  {
                    OFFSET -0.509559989 -0.0 0.509559989
                  }
                }
              }
            }
          }
        }
      }
    }
  }
}
MOTION
Frames: 4
Frame Time: 0.0083333
0.0 18.069999695 0.0 175.908996582 43.13539505 -177.384002686 0.0 -0.0 0.0 -31.394695282 13.680000305 4.610300064 0.0 -0.0 0.0 -0.799200296 16.191205978 -10.732901573 0.021400001 -0.945300102 -2.59829998 0.0 -0.0 0.0 18.912916183 11.369695663 -72.463973999 -21.219894409 -19.964298248 93.568901062 -2.68029952 -12.168801308 -37.069404602 -1.214400053 -6.990500927 19.687303543 -8.368099213 -4.594899654 20.175199509 4.809100628 -6.927299976 3.892999649 11.687001228 -3.101300478 -5.285100937 -10.164199829 -8.448200226 -3.187200069 12.623703003 -10.687300682 -5.106900692 5.193600655 -5.23250103 0.277699977 0.0 -0.0 0.0 -82.954467773 -55.078994751 59.459468842 37.045890808 -46.21900177 -16.273195267 0.0 -0.0 13.618900299 29.236003876 -11.722000122 -6.487299442 -7.125 0.0 0.0 1.428300023 16.606998444 -0.96080029 0.0 -0.0 0.0 49.044902802 24.985395432 -16.168100357 -133.074584961 51.677589417 -96.260185242 0.0 0.0 -32.162498474 -25.654399872 -10.264000893 4.891400814 7.125 -0.0 0.0 1.228100181 -41.33530426 0.110999934 
0.018501282 18.105400085 -0.0145998 177.544006348 43.940486908 -175.550003052 0.0 -0.0 0.0 -30.230804443 13.643300056 3.655199766 0.0 -0.0 0.0 -0.854300022 16.570400238 -10.40240097 0.026200006 -1.045200109 -2.873200178 0.0 -0.0 0.0 20.252191544 12.582202911 -72.45539856 -20.978219986 -19.97700882 92.861099243 -2.65599966 -12.139598846 -36.926002502 -1.282099843 -7.175398827 20.23620224 -7.343600273 -4.95720005 19.799200058 4.847800732 -7.133600712 4.230699539 11.093700409 -3.252600431 -4.795701027 -8.911999702 -7.953000546 -3.155200005 12.58649826 -9.909198761 -6.441099644 5.062300205 -4.863998413 -0.267099947 0.0 -0.0 0.0 -79.054916382 -56.942001343 58.77721405 37.681602478 -46.63469696 -16.733703613 0.0 -0.0 11.076002121 30.117391586 -12.349299431 -7.072199345 -7.125 0.0 0.0 1.977000237 15.781900406 -1.365600109 0.0 -0.0 0.0 50.23299408 26.193096161 -15.410298347 -133.455505371 51.503089905 -96.55859375 0.0 0.0 -32.066501617 -26.2208004 -10.181599617 4.975700378 7.125 -0.0 0.0 0.716100037 -41.299507141 0.065400012 
0.053001404 18.14620018 -0.103499889 178.927993774 44.848587036 -174.490997314 0.0 -0.0 0.0 -29.148002625 13.70370388 2.465198517 0.018900001 0.886900067 2.43770051 -0.739499986 15.907396317 -11.562301636 0.016799998 -0.836299956 -2.298499584 0.0 -0.0 0.0 21.501401901 12.870593071 -71.548110962 -20.806995392 -19.984388351 92.360076904 -2.383399725 -13.020204544 -36.115203857 -0.927600086 -6.135499001 17.178197861 -5.562698841 -5.556298733 18.238798141 4.07089901 -7.451198578 5.691998482 8.941101074 -3.541800737 -2.681800365 -8.549601555 -8.388403893 -4.916800022 14.725300789 -10.255600929 -6.746500492 5.563200474 -4.975700378 0.089599989 0.0 -0.0 0.0 -77.137390137 -59.40480423 55.929393768 37.278202057 -46.372104645 -16.441102982 0.0 -0.0 12.877799034 29.159700394 -15.061000824 -8.249502182 -7.125 0.0 0.0 1.052300096 12.855600357 -0.791900277 0.0 -0.0 0.0 52.318305969 28.180505753 -15.314998627 -133.985610962 51.255886078 -96.972717285 0.0 0.0 -32.104690552 -25.503198624 -10.133500099 4.797699928 7.125 -0.0 0.0 1.349600196 -41.17710495 0.127299964 
0.094600677 18.178800583 -0.179800034 179.132995605 46.04901123 -174.32800293 0.0 -0.0 0.0 -29.196292877 14.498396873 2.367300034 0.018800002 0.884800136 2.431999922 -0.797400236 16.283504486 -11.182703018 0.017799998 -0.860800028 -2.365900278 0.0 -0.0 0.0 21.851789474 13.322524071 -70.6978302 -20.683887482 -19.988790512 91.999778748 -2.129100084 -13.84459877 -35.365100861 -0.667199969 -5.22369957 14.547801018 -4.778900623 -5.772600651 16.78619957 3.083900213 -7.500801086 7.11590004 7.160899639 -3.630699873 -0.643699944 -6.069999695 -7.522300243 -6.777601242 14.024800301 -9.08909893 -6.480999947 4.941000462 -4.343500137 0.17550008 0.0 -0.0 0.0 -70.08959198 -62.435512543 51.671588898 37.909198761 -46.781200409 -16.899404526 0.0 -0.0 10.626600266 28.041793823 -16.267896652 -8.486398697 -7.125 0.0 0.0 0.18250002 11.684601784 -0.141800031 0.0 -0.0 0.0 54.145103455 29.636798859 -15.521198273 -134.585678101 50.969913483 -97.43977356 0.0 0.0 -32.292198181 -24.939798355 -9.894798279 4.568799496 7.125 -0.0 0.0 1.824900031 -40.862102509 0.186299965 
